<svg width="500" height="494" viewBox="0 0 500 494" fill="none" xmlns="http://www.w3.org/2000/svg">
<rect width="500" height="494" fill="#1E1E1E"/>
<ellipse cx="250" cy="247" rx="250" ry="247" fill="#C2C2C2"/>
<rect x="190" y="124.898" width="41" height="246" fill="black"/>
<rect x="190.145" y="165.213" width="42.9115" height="93.3641" transform="rotate(-90.1853 190.145 165.213)" fill="black"/>
<rect x="194" y="370.898" width="41" height="89.5327" transform="rotate(-89.7985 194 370.898)" fill="black"/>
<rect x="253.807" y="150.16" width="40.8398" height="86.7368" transform="rotate(-43.4924 253.807 150.16)" fill="black"/>
<rect x="315.161" y="284.898" width="41" height="82.0811" transform="rotate(46.6369 315.161 284.898)" fill="black"/>
<rect x="300.998" y="185.184" width="42.3544" height="129.639" transform="rotate(-0.061294 300.998 185.184)" fill="black"/>
<path d="M277.69 212.853L252.421 233.559L252.451 192.111L277.69 212.853Z" fill="black"/>
<path d="M278.018 245.829L301.182 266.57L301.213 225.121L278.018 245.829Z" fill="black"/>
<path d="M278.411 278.074L252.601 299.836L252.633 256.274L278.411 278.074Z" fill="black"/>
<rect x="275" y="208.898" width="3" height="7" fill="#C2C2C2"/>
<rect x="276" y="273.898" width="3" height="7" fill="#C2C2C2"/>
</svg>
